<svg xmlns="http://www.w3.org/2000/svg" viewBox="0 0 56 72" aria-hidden="true" role="img">
  <path fill="#7b7d82" d="M28 7.5c-8.9 0-16.1 7.3-16.1 16.3 0 4.8 2.1 9.2 5.3 12.2-7 2.8-12.1 8.8-13.7 16.3-.5 2.2 1.2 4.3 3.5 4.3h42c2.3 0 4-2.1 3.5-4.3-1.6-7.4-6.7-13.5-13.7-16.3 3.2-3 5.3-7.4 5.3-12.2 0-9-7.2-16.3-16.1-16.3z"/>
  <path fill="#6a6c71" d="M28.1 11.8c-6.3 0-11.5 5.2-11.5 11.7 0 3.3 1.4 6.4 3.6 8.5 1.5 1.4 2.4 3.4 2.4 5.5V40c0 3 2.4 5.4 5.4 5.4s5.4-2.4 5.4-5.4v-2.5c0-2.1.9-4.1 2.4-5.5 2.2-2.1 3.6-5.2 3.6-8.5 0-6.5-5.2-11.7-11.3-11.7z" opacity="0.55"/>
  <circle cx="14.2" cy="28.5" r="4.6" fill="#7b7d82"/>
  <circle cx="41.8" cy="28.5" r="4.6" fill="#7b7d82"/>
</svg>
