<svg xmlns="http://www.w3.org/2000/svg" viewBox="0 0 56 72" aria-hidden="true" role="img">
  <path fill="#7b7d82" d="M28 6c-10.1 0-18.2 8.4-18.2 18.6 0 6.9 3.8 12.9 9.4 16.1-6.7 2.7-11.5 8.5-13 15.6-.5 2.2 1.2 4.2 3.4 4.2h36.8c2.2 0 3.9-2 3.4-4.2-1.5-7.1-6.3-12.9-13-15.6 5.6-3.2 9.4-9.2 9.4-16.1C46.2 14.4 38.1 6 28 6z"/>
  <path fill="#6a6c71" d="M27.9 10.8c-7.4 0-13.4 6.1-13.4 13.7 0 5.3 2.9 10 7.2 12.3 1.1.6 1.8 1.8 1.8 3v2.2c0 2.5 2 4.6 4.5 4.6 2.5 0 4.5-2.1 4.5-4.6v-2.2c0-1.3.7-2.4 1.8-3 4.3-2.3 7.2-7 7.2-12.3 0-7.6-6-13.7-13.6-13.7z" opacity="0.55"/>
</svg>
